<?xml version="1.0" standalone="no"?><!DOCTYPE svg PUBLIC "-//W3C//DTD SVG 1.1//EN" "http://www.w3.org/Graphics/SVG/1.1/DTD/svg11.dtd"><svg t="1531967738557" class="icon" style="" viewBox="0 0 1024 1024" version="1.1" xmlns="http://www.w3.org/2000/svg" p-id="898" xmlns:xlink="http://www.w3.org/1999/xlink" width="200" height="200"><defs><style type="text/css"></style></defs><path d="M583.220065 259.957637c9.293667-3.990894 14.501272-13.964036 12.463869-23.870664-2.036379-9.906627-10.756995-17.015535-20.871353-17.015535L243.13346 219.071438c-2.89084 0-5.752004 0.588401-8.407484 1.728364L79.328743 287.532669c-8.29799 2.913353-14.257725 10.794857-14.257725 20.088524l0 197.047842 0 1.474584 0 197.047842c0 11.768021 9.53926 21.307282 21.307282 21.307282l331.679122 0c11.768021 0 21.307282-9.53926 21.307282-21.307282l0-197.047842 0-1.474584L439.364703 321.733609 583.220065 259.957637zM383.866714 483.360729 107.686604 483.360729 107.686604 328.928474l289.064558 0 0 154.432255L383.866714 483.360729zM247.515257 261.687024l223.679385 0-57.346079 24.625864L190.169177 286.312888 247.515257 261.687024zM107.686604 681.883155 107.686604 527.449877l289.064558 0L396.751163 681.883155 107.686604 681.883155z" p-id="899"></path><path d="M948.941514 288.316521c-4.060479-2.547009-8.789177-3.601015-13.422707-3.14155-0.352017-0.017396-0.701988-0.045025-1.057075-0.045025L635.003452 285.129946c-3.25309 0-6.461155 0.744967-9.381671 2.176572l-140.083455 68.697615c-7.832386 3.149736-13.368472 10.804067-13.368472 19.763113l0 203.167213 0 1.51961 0 203.167213c0 11.768021 9.53926 21.307282 21.307282 21.307282l299.458279 0c4.710278 0 9.049097-1.547239 12.576433-4.134157l141.386124-68.381413c7.355525-3.558036 12.029988-11.010775 12.029988-19.181875L958.927959 510.062881l0-0.529049 0-203.167213C958.927959 299.032584 955.155029 292.213271 948.941514 288.316521zM916.312372 495.526817l-95.404883 46.786583-6.664793 3.223415 0-155.829068 102.069677-49.365314L916.312372 495.526817zM770.772648 556.831045 514.784416 556.831045 514.784416 397.074527l255.987209 0L770.771625 556.831045zM639.947044 327.744509l202.672956 0-54.473659 26.714432L585.472362 354.458941 639.947044 327.744509zM514.784416 601.76135l255.987209 0 0 160.552649L514.784416 762.313999 514.784416 601.76135zM814.242695 749.233076 814.242695 593.404008l102.069677-49.366338 0 155.830091L814.242695 749.233076z" p-id="900"></path></svg>